<svg width="24" height="24" viewBox="0 0 24 24" fill="none" xmlns="http://www.w3.org/2000/svg">
<path d="M15.1069 18.827C14.7581 18.827 14.4554 18.5678 14.4102 18.2127C14.3613 17.8275 14.6338 17.4755 15.0189 17.4265C17.2407 17.1434 19.2303 16.5413 20.6212 15.7309C21.8932 14.9899 22.5936 14.1187 22.5936 13.2778C22.5936 12.3511 21.774 11.5929 21.0862 11.1198C20.7664 10.8997 20.6854 10.462 20.9055 10.142C21.1256 9.82209 21.5634 9.74116 21.8833 9.96125C23.268 10.9138 23.9998 12.0606 23.9998 13.278C23.9998 14.6597 23.0764 15.9281 21.3292 16.946C19.7565 17.8623 17.636 18.5108 15.1967 18.8215C15.1664 18.8252 15.1364 18.827 15.1069 18.827Z" fill="#190033"/>
<path d="M11.8286 17.8199L9.95361 15.9449C9.67896 15.6702 9.23383 15.6702 8.95917 15.9449C8.68469 16.2194 8.68469 16.6647 8.95917 16.9392L9.50702 17.487C7.40643 17.27 5.49811 16.781 4.02045 16.0703C2.35913 15.2714 1.40625 14.2536 1.40625 13.278C1.40625 12.4505 2.0885 11.5905 3.32721 10.8562C3.66138 10.6583 3.77161 10.2269 3.57367 9.8929C3.37555 9.55873 2.94415 9.4485 2.61017 9.64644C0.45282 10.9252 0 12.3271 0 13.278C0 14.838 1.21143 16.2798 3.41107 17.3378C5.11835 18.1586 7.32678 18.7085 9.73279 18.9213L8.95917 19.6949C8.68469 19.9694 8.68469 20.4147 8.95917 20.6893C9.0965 20.8265 9.27649 20.8952 9.45648 20.8952C9.63629 20.8952 9.81628 20.8265 9.95361 20.6893L11.8286 18.8143C12.1031 18.5397 12.1031 18.0944 11.8286 17.8199Z" fill="#190033"/>
<path d="M7.36395 11.8699V11.7007C7.36395 11.1039 6.99866 10.9882 6.50885 10.9882C6.20599 10.9882 6.10803 10.7211 6.10803 10.4539C6.10803 10.1866 6.20599 9.91943 6.50885 9.91943C6.84723 9.91943 7.20355 9.87494 7.20355 9.1535C7.20355 8.63696 6.90967 8.51227 6.54437 8.51227C6.10803 8.51227 5.88538 8.6192 5.88538 8.96655C5.88538 9.26923 5.75171 9.47412 5.23517 9.47412C4.59393 9.47412 4.51392 9.34045 4.51392 8.9129C4.51392 8.21838 5.01251 7.31879 6.54437 7.31879C7.6756 7.31879 8.53052 7.72839 8.53052 8.93085C8.53052 9.58087 8.2901 10.1866 7.84479 10.3915C8.3703 10.5874 8.75317 10.9792 8.75317 11.7007V11.8699C8.75317 13.3305 7.74683 13.8828 6.49988 13.8828C4.96802 13.8828 4.38025 12.9476 4.38025 12.1995C4.38025 11.7986 4.54944 11.6917 5.03925 11.6917C5.60925 11.6917 5.75171 11.8164 5.75171 12.155C5.75171 12.5735 6.14374 12.6715 6.54437 12.6715C7.15009 12.6715 7.36395 12.4489 7.36395 11.8699Z" fill="#190033"/>
<path d="M14.1592 11.7007V11.7809C14.1592 13.3127 13.2062 13.8828 11.9772 13.8828C10.7482 13.8828 9.78613 13.3127 9.78613 11.7809V9.42065C9.78613 7.88879 10.7747 7.31879 12.0574 7.31879C13.5625 7.31879 14.1592 8.25391 14.1592 8.9931C14.1592 9.42065 13.9543 9.55414 13.509 9.55414C13.1262 9.55414 12.7876 9.45618 12.7876 9.04657C12.7876 8.70819 12.4315 8.53003 12.0129 8.53003C11.4874 8.53003 11.1755 8.80615 11.1755 9.42065V10.2221C11.4606 9.91046 11.8615 9.83026 12.289 9.83026C13.3041 9.83026 14.1592 10.2756 14.1592 11.7007ZM11.1755 11.8788C11.1755 12.4933 11.4784 12.7605 11.9772 12.7605C12.476 12.7605 12.7698 12.4933 12.7698 11.8788V11.7986C12.7698 11.1484 12.476 10.899 11.9682 10.899C11.4874 10.899 11.1755 11.1307 11.1755 11.7184V11.8788Z" fill="#190033"/>
<path d="M15.2369 11.7809V9.42065C15.2369 7.88879 16.1898 7.31879 17.419 7.31879C18.648 7.31879 19.6099 7.88879 19.6099 9.42065V11.7809C19.6099 13.3127 18.648 13.8828 17.419 13.8828C16.1898 13.8828 15.2369 13.3127 15.2369 11.7809ZM18.2205 9.42065C18.2205 8.80615 17.9178 8.53003 17.419 8.53003C16.9202 8.53003 16.6263 8.80615 16.6263 9.42065V11.7809C16.6263 12.3954 16.9202 12.6715 17.419 12.6715C17.9178 12.6715 18.2205 12.3954 18.2205 11.7809V9.42065Z" fill="#190033"/>
<path d="M21.2976 7.3125C20.1343 7.3125 19.1882 6.36621 19.1882 5.20312C19.1882 4.04004 20.1343 3.09375 21.2976 3.09375C22.4607 3.09375 23.407 4.04004 23.407 5.20312C23.407 6.36621 22.4607 7.3125 21.2976 7.3125ZM21.2976 4.5C20.9098 4.5 20.5945 4.81549 20.5945 5.20312C20.5945 5.59094 20.9098 5.90625 21.2976 5.90625C21.6852 5.90625 22.0007 5.59094 22.0007 5.20312C22.0007 4.81549 21.6852 4.5 21.2976 4.5Z" fill="#190033"/>
</svg>
