<svg width="68" height="68" viewBox="0 0 68 68" fill="none" xmlns="http://www.w3.org/2000/svg">
<g clip-path="url(#clip0)">
<path d="M50.4861 31.6706H14.1896C12.6352 31.6706 11.3638 30.2857 11.3638 28.8448V11.5718C11.3638 11.0041 14.5422 9.30347 14.5422 9.30347H50.487C51.0547 9.30347 51.5192 9.76798 51.5192 10.3357V30.6392C51.5183 31.2061 51.0538 31.6706 50.4861 31.6706Z" fill="#ECA09C"/>
<path d="M54.6505 10.8449L41.4257 1.29828L29.5101 9.30253C28.3342 9.30253 27.3716 10.2651 27.3716 11.441V28.7605C27.3716 30.3613 28.6017 31.6705 30.2817 31.6705H32.7401H48.4312H53.2897C54.9731 31.6705 56.1997 30.3613 56.1997 28.7605V12.758C56.1997 11.4195 55.989 10.8449 54.6505 10.8449Z" fill="#F8DFDF"/>
<path d="M46.3786 31.6706H37.1924V17.9503C37.1924 17.6621 37.4281 17.4264 37.7163 17.4264H45.8539C46.142 17.4264 46.3777 17.6621 46.3777 17.9503V31.6706H46.3786Z" fill="#ECA09C"/>
<path d="M22.7644 25.2009H15.3545C14.8642 25.2009 14.4668 24.8035 14.4668 24.3132V19.9382C14.4668 19.4478 14.8642 19.0504 15.3545 19.0504H22.7644C23.2547 19.0504 23.6521 19.4478 23.6521 19.9382V24.3132C23.6521 24.8035 23.2547 25.2009 22.7644 25.2009Z" fill="#E09694"/>
<path d="M34.2714 25.2009H30.3153C30.0254 25.2009 29.7905 24.9661 29.7905 24.6762V19.5743C29.7905 19.2844 30.0254 19.0496 30.3153 19.0496H34.2714C34.5613 19.0496 34.7961 19.2844 34.7961 19.5743V24.6762C34.7961 24.9661 34.5613 25.2009 34.2714 25.2009Z" fill="#E8C5C5"/>
<path d="M53.2738 25.2009H49.3177C49.0278 25.2009 48.793 24.9661 48.793 24.6762V19.5743C48.793 19.2844 49.0278 19.0496 49.3177 19.0496H53.2738C53.5637 19.0496 53.7985 19.2844 53.7985 19.5743V24.6762C53.7985 24.9661 53.5637 25.2009 53.2738 25.2009Z" fill="#E8C5C5"/>
<path d="M6.93848 59.0718V58.8799C6.9187 59.0021 6.93848 59.0718 6.93848 59.0718Z" fill="#C67D7B"/>
<path d="M48.8753 50.7077C47.7149 52.1615 45.979 52.9434 43.9927 52.9735C41.8474 53.0062 40.1339 52.1125 38.9468 50.6131C37.7605 52.0927 35.9919 52.9598 33.924 52.9916C31.7468 53.0251 29.8879 52.1408 28.607 50.6105C26.3748 53.2316 22.1211 53.4398 18.8592 52.4445C17.9 52.152 17.0407 51.734 16.7155 50.7972C6.25365 51.6634 6.93837 53.2772 6.93837 53.2772V58.8806C7.07257 58.0436 9.06567 54.7499 32.1322 54.8901C60.8133 55.0647 60.8941 58.189 60.8941 58.189L61.1281 53.2772C61.1273 52.7834 59.1376 51.4183 48.8753 50.7077Z" fill="#C67D7B"/>
<path d="M24.6374 44.2271V44.1755C25.5346 43.9243 26.221 43.5191 26.695 42.9626C27.169 42.4051 27.4064 41.7376 27.4064 40.96C27.4064 40.0568 27.0374 39.348 26.3002 38.8336C25.563 38.3192 24.5453 38.062 23.2473 38.062C22.3501 38.062 21.5535 38.1592 20.8594 38.3536C20.1652 38.548 19.4856 38.874 18.8224 39.3308L20.2288 41.5948C21.0864 41.0581 21.9148 40.7888 22.7157 40.7888C23.1441 40.7888 23.4856 40.8688 23.7402 41.0288C23.9948 41.1888 24.1221 41.4348 24.1221 41.766C24.1221 42.6469 23.2619 43.0864 21.5406 43.0864H20.7518V45.6335H21.5234C22.1583 45.6335 22.6727 45.6808 23.0666 45.7746C23.4615 45.8692 23.7471 46.0094 23.9243 46.1944C24.1015 46.3802 24.1901 46.6443 24.1901 46.9875C24.1901 47.4331 24.0198 47.7608 23.68 47.969C23.3402 48.178 22.7983 48.2821 22.055 48.2821C21.575 48.2821 21.0503 48.215 20.4817 48.0808C19.9131 47.9466 19.354 47.7393 18.8052 47.4589V50.2718C19.1286 50.3956 19.44 50.5014 19.7411 50.5883C20.0628 50.6812 20.3733 50.7535 20.6701 50.8034C21.2447 50.9006 21.8692 50.9487 22.5436 50.9487C23.809 50.9487 24.8593 50.7492 25.698 50.3509C25.9466 50.233 26.178 50.098 26.3888 49.9449C27.3118 49.2756 27.7737 48.3586 27.7737 47.1922C27.7754 45.4795 26.7294 44.4903 24.6374 44.2271Z" fill="#F8DFDF"/>
<path d="M34.7298 42.418C33.5918 42.418 32.766 42.9041 32.2516 43.8761H32.1492C32.2008 42.7501 32.5036 41.9381 33.0584 41.4409C33.6124 40.9436 34.4563 40.695 35.5883 40.695C36.2567 40.695 36.8769 40.7492 37.4489 40.8576V38.2082C36.7685 38.111 36.1741 38.062 35.6657 38.062C34.2369 38.062 33.0343 38.3192 32.0597 38.8336C31.0851 39.348 30.3479 40.1471 29.8473 41.2301C29.3466 42.314 29.0972 43.7299 29.0972 45.4787C29.0972 47.2051 29.5144 48.5488 30.3488 49.5087C30.6103 49.8098 30.9036 50.0636 31.2288 50.27C31.941 50.7225 32.8047 50.9496 33.8214 50.9496C34.8666 50.9496 35.7388 50.7251 36.4373 50.2778C36.6704 50.1281 36.8846 49.9535 37.079 49.7539C37.8567 48.9565 38.2455 47.8692 38.2455 46.4911C38.2455 45.2103 37.9384 44.2116 37.3242 43.4942C36.7092 42.7768 35.8446 42.418 34.7298 42.418ZM32.8305 45.4279C33.0731 45.1647 33.3888 45.0331 33.7776 45.0331C34.5664 45.0331 34.9604 45.5423 34.9604 46.5591C34.9604 47.1535 34.8477 47.587 34.6214 47.858C34.3952 48.1298 34.1027 48.2657 33.7423 48.2657C33.3595 48.2657 33.0507 48.0903 32.8159 47.7384C32.581 47.3866 32.464 46.9367 32.464 46.3879C32.4657 46.0111 32.587 45.6911 32.8305 45.4279Z" fill="#F8DFDF"/>
<path d="M47.3133 39.6869C46.5503 38.6039 45.4226 38.062 43.9301 38.062C42.3981 38.062 41.2609 38.5824 40.5177 39.6224C39.7744 40.6632 39.4028 42.2976 39.4028 44.5273C39.4028 46.6537 39.783 48.2563 40.5435 49.3333C40.8497 49.7668 41.2161 50.1118 41.6411 50.3707C42.2725 50.756 43.0355 50.9496 43.9301 50.9496C44.7206 50.9496 45.4045 50.8111 45.9851 50.5367C46.5297 50.2786 46.983 49.9019 47.3425 49.4021C48.0858 48.3707 48.4574 46.7458 48.4574 44.5273C48.4582 42.3836 48.0763 40.7707 47.3133 39.6869ZM43.0389 41.5776C43.2161 41.04 43.5129 40.7716 43.9301 40.7716C44.3473 40.7716 44.6449 41.0503 44.8221 41.6077C44.9993 42.1651 45.0879 43.138 45.0879 44.5273C45.0879 45.9105 45.0002 46.8765 44.8264 47.4253C44.6518 47.9741 44.3533 48.2485 43.9301 48.2485C43.5129 48.2485 43.2153 47.9827 43.0389 47.4511C42.8617 46.9195 42.7731 45.9449 42.7731 44.5273C42.7731 43.0985 42.8617 42.1153 43.0389 41.5776Z" fill="#F8DFDF"/>
<path d="M54.718 38.9797C54.158 38.3914 53.4294 38.0963 52.5313 38.0963C51.5876 38.0963 50.8461 38.3793 50.3059 38.9453C50.1124 39.1483 49.9541 39.3797 49.8302 39.6395C49.6074 40.1049 49.4956 40.6623 49.4956 41.3118C49.4956 42.2838 49.7683 43.0623 50.3145 43.6481C50.4367 43.7789 50.5674 43.8941 50.7076 43.9956C51.1945 44.3492 51.7907 44.5272 52.4969 44.5272C53.4457 44.5272 54.1932 44.2399 54.7395 43.6653C55.2857 43.0907 55.5584 42.3062 55.5584 41.3118C55.5584 40.3458 55.278 39.5681 54.718 38.9797ZM52.5141 42.787C52.2165 42.787 51.9997 42.6657 51.8621 42.4223C51.7253 42.1797 51.6565 41.8098 51.6565 41.3118C51.6565 40.3174 51.9421 39.8202 52.5141 39.8202C53.0801 39.8202 53.3631 40.3174 53.3631 41.3118C53.3631 42.295 53.0801 42.787 52.5141 42.787Z" fill="#F8DFDF"/>
<path d="M61.1269 53.2773V59.759C61.1269 59.759 57.7402 63.8768 39.404 63.7469C38.949 63.7435 38.5825 63.3736 38.5825 62.9185V57.7856C38.5825 57.3323 38.9464 56.9633 39.3997 56.9573C43.287 56.9074 59.7824 56.5048 61.1269 53.2773Z" fill="#F8DFDF"/>
<path d="M35.4695 59.6015L27.8429 53.8407C27.5358 53.6093 27.0962 53.8278 27.0962 54.2123V56.928C21.547 56.7946 8.14407 56.1727 6.9372 53.2764L6.92773 59.7151C6.92773 59.7151 10.1294 63.6359 27.0962 63.746V67.0251C27.0962 67.4097 27.5358 67.6281 27.8429 67.3967L35.4695 61.6359C36.1456 61.1267 36.1456 60.1116 35.4695 59.6015Z" fill="#F8DFDF"/>
<path d="M10.3521 11.6259L24.5868 1.40314C25.6362 0.649599 26.8947 0.24358 28.1868 0.240999L41.8271 0.217773L26.838 11.2715L10.3521 11.6259Z" fill="#ECA09C"/>
<path d="M56.9719 11.3387L42.4138 0.420875C42.0593 0.15507 41.5733 0.152489 41.2172 0.414853L27.5941 10.4174C26.8577 10.9722 25.9631 11.2776 25.041 11.2888L10.8613 11.4591C10.389 11.4591 10.0054 11.8419 10.0054 12.315C10.0054 12.7838 10.383 13.1657 10.8518 13.1709H25.5889C26.53 13.1709 27.4461 12.8647 28.1971 12.2978L41.2034 2.74172C41.5621 2.47764 42.0525 2.48194 42.4069 2.75204L55.7857 12.9472C56.4506 13.441 57.3934 12.9584 57.3805 12.13C57.3754 11.8161 57.224 11.5236 56.9719 11.3387Z" fill="#F1C0BC"/>
</g>
<defs>
<clipPath id="clip0">
<rect x="6.7002" width="54.6061" height="68" fill="white"/>
</clipPath>
</defs>
</svg>
